<svg width="24" height="24" viewBox="0 0 24 24" fill="none" xmlns="http://www.w3.org/2000/svg">
<g id="Monotone add">
<path id="Vector" d="M17.9853 11.2629L17.9853 11.2628L13.1581 6.43564L13.0781 6.35562V6.46879V20.25C13.0781 20.536 12.9645 20.8102 12.7623 21.0124C12.5601 21.2146 12.2859 21.3282 12 21.3282C11.714 21.3282 11.4398 21.2146 11.2376 21.0124C11.0354 20.8102 10.9218 20.536 10.9218 20.25V6.46879V6.35565L10.8418 6.43564L6.01276 11.2628L6.01275 11.2628C5.8102 11.4654 5.53548 11.5792 5.24902 11.5792C4.96257 11.5792 4.68785 11.4654 4.48529 11.2628C4.28274 11.0603 4.16895 10.7856 4.16895 10.4991C4.16895 10.2126 4.28274 9.93792 4.48529 9.73537L11.2353 2.98537L11.2353 2.98531C11.3355 2.8848 11.4545 2.80505 11.5856 2.75064C11.7166 2.69622 11.8571 2.66821 11.999 2.66821C12.1409 2.66821 12.2814 2.69622 12.4125 2.75064C12.5435 2.80505 12.6625 2.8848 12.7627 2.98531L12.7628 2.98537L19.5128 9.73537L19.5128 9.73543C19.6133 9.83559 19.6931 9.95461 19.7475 10.0857C19.8019 10.2167 19.8299 10.3572 19.8299 10.4991C19.8299 10.641 19.8019 10.7815 19.7475 10.9125C19.6931 11.0436 19.6133 11.1626 19.5128 11.2628L19.5127 11.2629C19.4125 11.3634 19.2935 11.4431 19.1625 11.4976C19.0314 11.552 18.8909 11.58 18.749 11.58C18.6071 11.58 18.4666 11.552 18.3356 11.4976C18.2045 11.4431 18.0855 11.3634 17.9853 11.2629Z" fill="#94A3B8" stroke="#94A3B8" stroke-width="0.09375"/>
</g>
</svg>
