<svg width="24" height="24" viewBox="0 0 24 24" fill="none" xmlns="http://www.w3.org/2000/svg">
<g id="Monotone add">
<path id="Vector" d="M4.30534 12.5591L4.30538 12.5591L13.5078 3.38194L13.5079 3.3819C14.2026 2.68754 15.1447 2.29759 16.127 2.29785C16.6133 2.29798 17.0949 2.3939 17.5442 2.58014C17.9935 2.76638 18.4017 3.03929 18.7455 3.38329C19.0893 3.72729 19.362 4.13564 19.548 4.58502C19.734 5.03441 19.8297 5.51603 19.8295 6.00239C19.8294 6.48874 19.7335 6.97031 19.5473 7.4196C19.3611 7.86866 19.0884 8.27668 18.7446 8.62039C18.7445 8.62056 18.7443 8.62073 18.7441 8.62091L18.7292 8.63492L18.7288 8.63529L9.74756 17.2809C9.6455 17.3791 9.52511 17.4562 9.39326 17.5078C9.2614 17.5594 9.12067 17.5846 8.97909 17.5818C8.83751 17.5791 8.69786 17.5485 8.56812 17.4918C8.43837 17.435 8.32107 17.3533 8.2229 17.2513C8.12474 17.1492 8.04764 17.0288 7.996 16.8969C7.94437 16.7651 7.91921 16.6244 7.92196 16.4828C7.92471 16.3412 7.95533 16.2016 8.01205 16.0718C8.06877 15.9421 8.15049 15.8248 8.25255 15.7266L8.25256 15.7266L17.2254 7.09033L17.2254 7.09034L17.2261 7.0896C17.5153 6.79858 17.6771 6.40458 17.6759 5.99428C17.6746 5.58397 17.5104 5.19098 17.2193 4.90175C17.0752 4.75854 16.9043 4.64511 16.7164 4.56795C16.5285 4.49078 16.3272 4.45139 16.124 4.45202C15.7137 4.45328 15.3207 4.61749 15.0315 4.90852L5.82915 14.0827L5.82909 14.0828C5.18739 14.7248 4.82698 15.5953 4.82716 16.503C4.82725 16.9525 4.91586 17.3975 5.08793 17.8127C5.26001 18.2279 5.51218 18.6051 5.83004 18.9228C6.14791 19.2406 6.52524 19.4926 6.9405 19.6645C7.35576 19.8364 7.80082 19.9249 8.25026 19.9248C9.15793 19.9246 10.0284 19.5638 10.6701 18.9219C10.6701 18.9219 10.6701 18.9219 10.6701 18.9219L18.3632 11.2344L18.3632 11.2344C18.4635 11.1341 18.5826 11.0545 18.7136 11.0003C18.8446 10.946 18.9851 10.918 19.1269 10.918C19.2688 10.918 19.4092 10.946 19.5403 11.0003C19.6713 11.0545 19.7904 11.1341 19.8907 11.2344C19.991 11.3347 20.0705 11.4538 20.1248 11.5848C20.1791 11.7158 20.207 11.8563 20.207 11.9981C20.207 12.14 20.1791 12.2804 20.1248 12.4115C20.0722 12.5385 19.9957 12.6544 19.8997 12.7527L19.8961 12.7536L19.8869 12.7628L12.1938 20.4503L12.2269 20.4834M4.30534 12.5591L4.27224 12.5259C3.21701 13.5808 2.62404 15.0116 2.62378 16.5037C2.62352 17.9957 3.21598 19.4268 4.27084 20.482C5.32569 21.5373 6.75654 22.1302 8.24859 22.1305C9.74065 22.1308 11.1717 21.5383 12.2269 20.4834M4.30534 12.5591C3.25893 13.6052 2.67092 15.0241 2.67065 16.5037C2.67039 17.9833 3.25792 19.4025 4.30399 20.4489C5.35006 21.4953 6.76898 22.0834 8.2486 22.0836C9.72823 22.0839 11.1474 21.4964 12.1938 20.4503L12.2269 20.4834M4.30534 12.5591L12.2269 20.4834" fill="#94A3B8" stroke="#94A3B8" stroke-width="0.09375"/>
</g>
</svg>
