<svg width="18" height="19" viewBox="0 0 18 19" fill="none" xmlns="http://www.w3.org/2000/svg">
<g id="Frame" clip-path="url(#clip0_606_2544)">
<path id="Vector" d="M8.99097 8.57593V8.5853" stroke="black" stroke-width="1.5" stroke-linecap="round" stroke-linejoin="round"/>
<path id="Vector_2" d="M5.99097 8.57593V8.5853" stroke="black" stroke-width="1.5" stroke-linecap="round" stroke-linejoin="round"/>
<path id="Vector_3" d="M11.991 8.57593V8.5853" stroke="black" stroke-width="1.5" stroke-linecap="round" stroke-linejoin="round"/>
<path id="Vector_4" d="M13.491 3.32666C14.0877 3.32666 14.66 3.56371 15.082 3.98567C15.5039 4.40763 15.741 4.97992 15.741 5.57666V11.5767C15.741 12.1734 15.5039 12.7457 15.082 13.1677C14.66 13.5896 14.0877 13.8267 13.491 13.8267H9.74097L5.99097 16.0767V13.8267H4.49097C3.89423 13.8267 3.32193 13.5896 2.89998 13.1677C2.47802 12.7457 2.24097 12.1734 2.24097 11.5767V5.57666C2.24097 4.97992 2.47802 4.40763 2.89998 3.98567C3.32193 3.56371 3.89423 3.32666 4.49097 3.32666H13.491Z" stroke="black" stroke-width="1.5" stroke-linecap="round" stroke-linejoin="round"/>
</g>
<defs>
<clipPath id="clip0_606_2544">
<rect width="18" height="18" fill="white" transform="translate(-0.0090332 0.326294)"/>
</clipPath>
</defs>
</svg>
