<svg width="18" height="18" viewBox="0 0 18 18" fill="none" xmlns="http://www.w3.org/2000/svg">
<g id="Frame" clip-path="url(#clip0_606_2515)">
<path id="Vector" d="M7.44415 2.97932C7.76076 1.67421 9.61735 1.67421 9.93396 2.97932C9.98147 3.17538 10.0746 3.35746 10.2058 3.51073C10.3369 3.664 10.5025 3.78413 10.6888 3.86134C10.8752 3.93856 11.0772 3.97068 11.2783 3.95508C11.4794 3.93949 11.674 3.87662 11.8463 3.7716C12.9931 3.07297 14.3064 4.38551 13.6077 5.53305C13.5029 5.70523 13.4401 5.89972 13.4245 6.10071C13.409 6.30171 13.4411 6.50354 13.5182 6.6898C13.5953 6.87606 13.7153 7.04149 13.8684 7.17265C14.0215 7.30381 14.2034 7.397 14.3993 7.44464C15.7044 7.76125 15.7044 9.61784 14.3993 9.93445C14.2032 9.98196 14.0211 10.0751 13.8679 10.2063C13.7146 10.3374 13.5945 10.5029 13.5173 10.6893C13.44 10.8757 13.4079 11.0777 13.4235 11.2788C13.4391 11.4799 13.502 11.6745 13.607 11.8468C14.3056 12.9936 12.9931 14.3069 11.8455 13.6082C11.6734 13.5034 11.4789 13.4406 11.2779 13.425C11.0769 13.4095 10.8751 13.4416 10.6888 13.5187C10.5025 13.5958 10.3371 13.7158 10.2059 13.8689C10.0748 14.022 9.9816 14.2039 9.93396 14.3998C9.61735 15.7049 7.76076 15.7049 7.44415 14.3998C7.39664 14.2037 7.30351 14.0216 7.17234 13.8684C7.04117 13.7151 6.87566 13.595 6.68929 13.5177C6.50291 13.4405 6.30094 13.4084 6.09981 13.424C5.89867 13.4396 5.70407 13.5025 5.53182 13.6075C4.38502 14.3061 3.07174 12.9936 3.77037 11.846C3.87524 11.6739 3.93801 11.4794 3.95356 11.2784C3.96912 11.0774 3.93703 10.8756 3.85991 10.6893C3.78278 10.503 3.6628 10.3376 3.5097 10.2064C3.3566 10.0753 3.17472 9.98209 2.97883 9.93445C1.67372 9.61784 1.67372 7.76125 2.97883 7.44464C3.1749 7.39713 3.35697 7.304 3.51024 7.17283C3.66351 7.04166 3.78364 6.87615 3.86086 6.68978C3.93807 6.5034 3.97019 6.30143 3.95459 6.1003C3.939 5.89916 3.87613 5.70455 3.77111 5.53231C3.07248 4.38551 4.38502 3.07222 5.53256 3.77086C6.27579 4.22274 7.23902 3.82288 7.44415 2.97932Z" stroke="#302E25" stroke-width="1.5" stroke-linecap="round" stroke-linejoin="round"/>
<path id="Vector_2" d="M6.45947 8.69013C6.45947 9.28148 6.69438 9.84861 7.11253 10.2668C7.53068 10.6849 8.09781 10.9198 8.68916 10.9198C9.28051 10.9198 9.84764 10.6849 10.2658 10.2668C10.6839 9.84861 10.9188 9.28148 10.9188 8.69013C10.9188 8.09879 10.6839 7.53166 10.2658 7.11351C9.84764 6.69536 9.28051 6.46045 8.68916 6.46045C8.09781 6.46045 7.53068 6.69536 7.11253 7.11351C6.69438 7.53166 6.45947 8.09879 6.45947 8.69013Z" stroke="#302E25" stroke-width="1.5" stroke-linecap="round" stroke-linejoin="round"/>
</g>
<defs>
<clipPath id="clip0_606_2515">
<rect width="17.8375" height="17.8375" fill="white" transform="translate(0 0.000488281)"/>
</clipPath>
</defs>
</svg>
